<mxfile host="app.diagrams.net" modified="2022-09-22T18:47:23.983Z" agent="5.0 (Windows NT 10.0; Win64; x64) AppleWebKit/537.36 (KHTML, like Gecko) Chrome/105.0.0.0 Safari/537.36" etag="nsLmwILtHifi12wIjxsg" version="20.3.6" type="github">
  <diagram id="um0cQFznQ6V82jSNLfpd" name="Página-1">
    <mxGraphModel dx="1422" dy="770" grid="1" gridSize="10" guides="1" tooltips="1" connect="1" arrows="1" fold="1" page="1" pageScale="1" pageWidth="827" pageHeight="1169" math="0" shadow="0">
      <root>
        <mxCell id="0" />
        <mxCell id="1" parent="0" />
        <mxCell id="VPleFKFre7a8u422LAZx-3" value="" style="edgeStyle=orthogonalEdgeStyle;rounded=0;orthogonalLoop=1;jettySize=auto;html=1;strokeColor=#006658;fontColor=#5C5C5C;" edge="1" parent="1" source="VPleFKFre7a8u422LAZx-1" target="VPleFKFre7a8u422LAZx-2">
          <mxGeometry relative="1" as="geometry" />
        </mxCell>
        <mxCell id="VPleFKFre7a8u422LAZx-1" value="Inicio" style="ellipse;whiteSpace=wrap;html=1;fillColor=#d5e8d4;strokeColor=#82b366;gradientColor=#97d077;" vertex="1" parent="1">
          <mxGeometry x="384" y="30" width="60" height="40" as="geometry" />
        </mxCell>
        <mxCell id="VPleFKFre7a8u422LAZx-5" value="" style="edgeStyle=orthogonalEdgeStyle;rounded=0;orthogonalLoop=1;jettySize=auto;html=1;strokeColor=#006658;fontColor=#5C5C5C;" edge="1" parent="1" source="VPleFKFre7a8u422LAZx-2" target="VPleFKFre7a8u422LAZx-4">
          <mxGeometry relative="1" as="geometry" />
        </mxCell>
        <mxCell id="VPleFKFre7a8u422LAZx-2" value="num1&lt;br&gt;num2" style="rounded=0;whiteSpace=wrap;html=1;fillColor=#fff2cc;strokeColor=#d6b656;gradientColor=#ffd966;" vertex="1" parent="1">
          <mxGeometry x="388" y="90" width="52" height="40" as="geometry" />
        </mxCell>
        <mxCell id="VPleFKFre7a8u422LAZx-7" value="" style="edgeStyle=orthogonalEdgeStyle;rounded=0;orthogonalLoop=1;jettySize=auto;html=1;strokeColor=#006658;fontColor=#5C5C5C;" edge="1" parent="1" source="VPleFKFre7a8u422LAZx-4" target="VPleFKFre7a8u422LAZx-6">
          <mxGeometry relative="1" as="geometry" />
        </mxCell>
        <mxCell id="VPleFKFre7a8u422LAZx-4" value="&quot;Ingrese un número&quot;" style="shape=document;whiteSpace=wrap;html=1;boundedLbl=1;rounded=0;fillColor=#dae8fc;strokeColor=#6c8ebf;gradientColor=#7ea6e0;" vertex="1" parent="1">
          <mxGeometry x="354" y="150" width="120" height="30" as="geometry" />
        </mxCell>
        <mxCell id="VPleFKFre7a8u422LAZx-9" value="" style="edgeStyle=orthogonalEdgeStyle;rounded=0;orthogonalLoop=1;jettySize=auto;html=1;strokeColor=#006658;fontColor=#5C5C5C;" edge="1" parent="1" source="VPleFKFre7a8u422LAZx-6" target="VPleFKFre7a8u422LAZx-8">
          <mxGeometry relative="1" as="geometry" />
        </mxCell>
        <mxCell id="VPleFKFre7a8u422LAZx-6" value="num1" style="shape=parallelogram;perimeter=parallelogramPerimeter;whiteSpace=wrap;html=1;fixedSize=1;rounded=0;fillColor=#21C0A5;strokeColor=#006658;fontColor=#5C5C5C;" vertex="1" parent="1">
          <mxGeometry x="378" y="200" width="72" height="30" as="geometry" />
        </mxCell>
        <mxCell id="VPleFKFre7a8u422LAZx-11" value="" style="edgeStyle=orthogonalEdgeStyle;rounded=0;orthogonalLoop=1;jettySize=auto;html=1;strokeColor=#006658;fontColor=#5C5C5C;" edge="1" parent="1" source="VPleFKFre7a8u422LAZx-8" target="VPleFKFre7a8u422LAZx-10">
          <mxGeometry relative="1" as="geometry" />
        </mxCell>
        <mxCell id="VPleFKFre7a8u422LAZx-8" value="&quot;Ingrese un número&quot;" style="shape=document;whiteSpace=wrap;html=1;boundedLbl=1;rounded=0;fillColor=#dae8fc;strokeColor=#6c8ebf;gradientColor=#7ea6e0;" vertex="1" parent="1">
          <mxGeometry x="354" y="250" width="120" height="35" as="geometry" />
        </mxCell>
        <mxCell id="VPleFKFre7a8u422LAZx-13" value="" style="edgeStyle=orthogonalEdgeStyle;rounded=0;orthogonalLoop=1;jettySize=auto;html=1;strokeColor=#006658;fontColor=#5C5C5C;" edge="1" parent="1" source="VPleFKFre7a8u422LAZx-10" target="VPleFKFre7a8u422LAZx-12">
          <mxGeometry relative="1" as="geometry" />
        </mxCell>
        <mxCell id="VPleFKFre7a8u422LAZx-10" value="num2" style="shape=parallelogram;perimeter=parallelogramPerimeter;whiteSpace=wrap;html=1;fixedSize=1;rounded=0;fillColor=#21C0A5;strokeColor=#006658;fontColor=#5C5C5C;" vertex="1" parent="1">
          <mxGeometry x="378" y="300" width="72" height="30" as="geometry" />
        </mxCell>
        <mxCell id="VPleFKFre7a8u422LAZx-19" value="" style="edgeStyle=orthogonalEdgeStyle;rounded=0;orthogonalLoop=1;jettySize=auto;html=1;strokeColor=#006658;fontColor=#5C5C5C;" edge="1" parent="1" source="VPleFKFre7a8u422LAZx-12" target="VPleFKFre7a8u422LAZx-18">
          <mxGeometry relative="1" as="geometry" />
        </mxCell>
        <mxCell id="VPleFKFre7a8u422LAZx-34" value="si" style="edgeLabel;html=1;align=center;verticalAlign=middle;resizable=0;points=[];fontColor=#5C5C5C;fontSize=23;" vertex="1" connectable="0" parent="VPleFKFre7a8u422LAZx-19">
          <mxGeometry x="-0.6235" relative="1" as="geometry">
            <mxPoint x="-17" as="offset" />
          </mxGeometry>
        </mxCell>
        <mxCell id="VPleFKFre7a8u422LAZx-21" value="" style="edgeStyle=orthogonalEdgeStyle;rounded=0;orthogonalLoop=1;jettySize=auto;html=1;strokeColor=#006658;fontColor=#5C5C5C;" edge="1" parent="1" source="VPleFKFre7a8u422LAZx-12" target="VPleFKFre7a8u422LAZx-20">
          <mxGeometry relative="1" as="geometry" />
        </mxCell>
        <mxCell id="VPleFKFre7a8u422LAZx-35" value="no" style="edgeLabel;html=1;align=center;verticalAlign=middle;resizable=0;points=[];fontColor=#5C5C5C;fontSize=23;" vertex="1" connectable="0" parent="VPleFKFre7a8u422LAZx-21">
          <mxGeometry x="0.0154" y="-1" relative="1" as="geometry">
            <mxPoint x="-26" y="-1" as="offset" />
          </mxGeometry>
        </mxCell>
        <mxCell id="VPleFKFre7a8u422LAZx-12" value="num1==num2" style="rhombus;whiteSpace=wrap;html=1;rounded=0;fillColor=#e6d0de;strokeColor=#996185;gradientColor=#d5739d;" vertex="1" parent="1">
          <mxGeometry x="358" y="350" width="112" height="40" as="geometry" />
        </mxCell>
        <mxCell id="VPleFKFre7a8u422LAZx-31" value="" style="edgeStyle=orthogonalEdgeStyle;rounded=0;orthogonalLoop=1;jettySize=auto;html=1;strokeColor=#006658;fontColor=#5C5C5C;" edge="1" parent="1" source="VPleFKFre7a8u422LAZx-18" target="VPleFKFre7a8u422LAZx-30">
          <mxGeometry relative="1" as="geometry">
            <Array as="points">
              <mxPoint x="280" y="610" />
              <mxPoint x="358" y="610" />
            </Array>
          </mxGeometry>
        </mxCell>
        <mxCell id="VPleFKFre7a8u422LAZx-18" value="&quot;Los números son iguales&quot;" style="shape=document;whiteSpace=wrap;html=1;boundedLbl=1;rounded=0;fillColor=#dae8fc;strokeColor=#6c8ebf;gradientColor=#7ea6e0;" vertex="1" parent="1">
          <mxGeometry x="230" y="400" width="100" height="40" as="geometry" />
        </mxCell>
        <mxCell id="VPleFKFre7a8u422LAZx-23" value="" style="edgeStyle=orthogonalEdgeStyle;rounded=0;orthogonalLoop=1;jettySize=auto;html=1;strokeColor=#006658;fontColor=#5C5C5C;" edge="1" parent="1" source="VPleFKFre7a8u422LAZx-20" target="VPleFKFre7a8u422LAZx-22">
          <mxGeometry relative="1" as="geometry">
            <Array as="points">
              <mxPoint x="414" y="440" />
            </Array>
          </mxGeometry>
        </mxCell>
        <mxCell id="VPleFKFre7a8u422LAZx-28" value="si" style="edgeLabel;html=1;align=center;verticalAlign=middle;resizable=0;points=[];fontColor=#5C5C5C;fontSize=23;" vertex="1" connectable="0" parent="VPleFKFre7a8u422LAZx-23">
          <mxGeometry x="-0.5818" y="-2" relative="1" as="geometry">
            <mxPoint x="-12" y="2" as="offset" />
          </mxGeometry>
        </mxCell>
        <mxCell id="VPleFKFre7a8u422LAZx-25" value="" style="edgeStyle=orthogonalEdgeStyle;rounded=0;orthogonalLoop=1;jettySize=auto;html=1;strokeColor=#006658;fontColor=#5C5C5C;" edge="1" parent="1" source="VPleFKFre7a8u422LAZx-20" target="VPleFKFre7a8u422LAZx-24">
          <mxGeometry relative="1" as="geometry" />
        </mxCell>
        <mxCell id="VPleFKFre7a8u422LAZx-29" value="no" style="edgeLabel;html=1;align=center;verticalAlign=middle;resizable=0;points=[];fontColor=#5C5C5C;fontSize=23;" vertex="1" connectable="0" parent="VPleFKFre7a8u422LAZx-25">
          <mxGeometry x="-0.2495" y="1" relative="1" as="geometry">
            <mxPoint x="-15" y="1" as="offset" />
          </mxGeometry>
        </mxCell>
        <mxCell id="VPleFKFre7a8u422LAZx-20" value="num1&amp;gt;num2" style="rhombus;whiteSpace=wrap;html=1;rounded=0;fillColor=#e6d0de;strokeColor=#996185;gradientColor=#d5739d;" vertex="1" parent="1">
          <mxGeometry x="490" y="410" width="100" height="60" as="geometry" />
        </mxCell>
        <mxCell id="VPleFKFre7a8u422LAZx-32" style="edgeStyle=orthogonalEdgeStyle;rounded=0;orthogonalLoop=1;jettySize=auto;html=1;entryX=0.5;entryY=0;entryDx=0;entryDy=0;strokeColor=#006658;fontColor=#5C5C5C;" edge="1" parent="1" source="VPleFKFre7a8u422LAZx-22" target="VPleFKFre7a8u422LAZx-30">
          <mxGeometry relative="1" as="geometry" />
        </mxCell>
        <mxCell id="VPleFKFre7a8u422LAZx-22" value="num1, &quot; es mayor a &quot;, num2" style="shape=document;whiteSpace=wrap;html=1;boundedLbl=1;rounded=0;fillColor=#dae8fc;strokeColor=#6c8ebf;gradientColor=#7ea6e0;" vertex="1" parent="1">
          <mxGeometry x="332" y="480" width="164" height="40" as="geometry" />
        </mxCell>
        <mxCell id="VPleFKFre7a8u422LAZx-27" value="" style="edgeStyle=orthogonalEdgeStyle;rounded=0;orthogonalLoop=1;jettySize=auto;html=1;strokeColor=#006658;fontColor=#5C5C5C;" edge="1" parent="1" source="VPleFKFre7a8u422LAZx-24" target="VPleFKFre7a8u422LAZx-26">
          <mxGeometry relative="1" as="geometry">
            <Array as="points">
              <mxPoint x="540" y="520" />
            </Array>
          </mxGeometry>
        </mxCell>
        <mxCell id="VPleFKFre7a8u422LAZx-38" value="si" style="edgeLabel;html=1;align=center;verticalAlign=middle;resizable=0;points=[];fontSize=23;fontColor=#5C5C5C;" vertex="1" connectable="0" parent="VPleFKFre7a8u422LAZx-27">
          <mxGeometry x="-0.7142" relative="1" as="geometry">
            <mxPoint x="-16" as="offset" />
          </mxGeometry>
        </mxCell>
        <mxCell id="VPleFKFre7a8u422LAZx-36" style="edgeStyle=orthogonalEdgeStyle;rounded=0;orthogonalLoop=1;jettySize=auto;html=1;entryX=0.5;entryY=0;entryDx=0;entryDy=0;strokeColor=#006658;fontColor=#5C5C5C;" edge="1" parent="1" source="VPleFKFre7a8u422LAZx-24" target="VPleFKFre7a8u422LAZx-30">
          <mxGeometry relative="1" as="geometry">
            <mxPoint x="360" y="650" as="targetPoint" />
            <Array as="points">
              <mxPoint x="760" y="520" />
              <mxPoint x="760" y="650" />
              <mxPoint x="358" y="650" />
            </Array>
          </mxGeometry>
        </mxCell>
        <mxCell id="VPleFKFre7a8u422LAZx-39" value="no" style="edgeLabel;html=1;align=center;verticalAlign=middle;resizable=0;points=[];fontSize=23;fontColor=#5C5C5C;" vertex="1" connectable="0" parent="VPleFKFre7a8u422LAZx-36">
          <mxGeometry x="-0.8702" y="-1" relative="1" as="geometry">
            <mxPoint x="-11" y="-1" as="offset" />
          </mxGeometry>
        </mxCell>
        <mxCell id="VPleFKFre7a8u422LAZx-24" value="num2&amp;gt;num1" style="rhombus;whiteSpace=wrap;html=1;rounded=0;fillColor=#e6d0de;strokeColor=#996185;gradientColor=#d5739d;" vertex="1" parent="1">
          <mxGeometry x="600" y="490" width="100" height="60" as="geometry" />
        </mxCell>
        <mxCell id="VPleFKFre7a8u422LAZx-37" style="edgeStyle=orthogonalEdgeStyle;rounded=0;orthogonalLoop=1;jettySize=auto;html=1;entryX=0.5;entryY=0;entryDx=0;entryDy=0;strokeColor=#006658;fontColor=#5C5C5C;" edge="1" parent="1" source="VPleFKFre7a8u422LAZx-26" target="VPleFKFre7a8u422LAZx-30">
          <mxGeometry relative="1" as="geometry">
            <Array as="points">
              <mxPoint x="540" y="650" />
              <mxPoint x="358" y="650" />
            </Array>
          </mxGeometry>
        </mxCell>
        <mxCell id="VPleFKFre7a8u422LAZx-26" value="num2, &quot; es mayor a &quot;, num1" style="shape=document;whiteSpace=wrap;html=1;boundedLbl=1;rounded=0;fillColor=#dae8fc;strokeColor=#6c8ebf;gradientColor=#7ea6e0;" vertex="1" parent="1">
          <mxGeometry x="460" y="560" width="160" height="40" as="geometry" />
        </mxCell>
        <mxCell id="VPleFKFre7a8u422LAZx-30" value="&lt;font style=&quot;font-size: 15px;&quot;&gt;fin&lt;/font&gt;" style="ellipse;whiteSpace=wrap;html=1;rounded=0;fillColor=#d5e8d4;strokeColor=#82b366;gradientColor=#97d077;" vertex="1" parent="1">
          <mxGeometry x="328" y="700" width="60" height="40" as="geometry" />
        </mxCell>
      </root>
    </mxGraphModel>
  </diagram>
</mxfile>
